{
	"asset":{
		"generator":"Khronos glTF Blender I/O v4.3.47",
		"version":"2.0"
	},
	"scene":0,
	"scenes":[
		{
			"name":"Scene",
			"nodes":[
				0,
				1,
				12
			]
		}
	],
	"nodes":[
		{
			"name":"Node_7"
		},
		{
			"name":"bells"
		},
		{
			"name":"Bone.010",
			"rotation":[
				-0.011287505738437176,
				1.956049899831669e-08,
				-0.012302759103477001,
				0.9998606443405151
			],
			"translation":[
				5.960464477539063e-08,
				0.21890825033187866,
				3.725290298461914e-09
			]
		},
		{
			"children":[
				2
			],
			"name":"Bone.007",
			"rotation":[
				0.11552737653255463,
				-0.03597070649266243,
				0.8021243810653687,
				0.5847700834274292
			],
			"scale":[
				0.9999998807907104,
				0.9999998211860657,
				0.9999999403953552
			],
			"translation":[
				-0.10877186805009842,
				0.599008321762085,
				-0.0008481759577989578
			]
		},
		{
			"name":"Bone.011",
			"rotation":[
				0.03627311438322067,
				-0.005025170743465424,
				-0.010409839451313019,
				0.9992750883102417
			],
			"scale":[
				0.9999998807907104,
				0.9999999403953552,
				1
			],
			"translation":[
				-7.741618901491165e-08,
				0.23482388257980347,
				-1.862645149230957e-09
			]
		},
		{
			"children":[
				4
			],
			"name":"Bone.008",
			"rotation":[
				0.04684597626328468,
				-0.0010478317271918058,
				-0.8042070865631104,
				0.5924991965293884
			],
			"scale":[
				1,
				1,
				0.9999999403953552
			],
			"translation":[
				-0.10877186805009842,
				0.599008321762085,
				-0.0008481759577989578
			]
		},
		{
			"name":"Bone.009",
			"rotation":[
				0.046196598559617996,
				-0.02571098692715168,
				-0.0004609136958606541,
				0.9986013174057007
			],
			"scale":[
				1,
				1,
				1.0000001192092896
			],
			"translation":[
				-0.10877186805009842,
				0.599008321762085,
				-0.0008481759577989578
			]
		},
		{
			"name":"Bone.003",
			"rotation":[
				0.008662734180688858,
				-0.0004087052075192332,
				0.0038928561843931675,
				0.999954879283905
			],
			"scale":[
				1,
				1,
				0.9999999403953552
			],
			"translation":[
				-7.043126970529556e-09,
				0.14718030393123627,
				1.1350493878126144e-08
			]
		},
		{
			"children":[
				7
			],
			"name":"Bone.001",
			"rotation":[
				0.989953339099884,
				0.0023925723508000374,
				-0.14136134088039398,
				0.0019111422589048743
			],
			"scale":[
				0.9999998807907104,
				1,
				1.0000001192092896
			],
			"translation":[
				0.006171181797981262,
				0.30403029918670654,
				-0.0024248063564300537
			]
		},
		{
			"name":"Bone.005",
			"rotation":[
				0.013796581886708736,
				0.00434427335858345,
				-0.006170167587697506,
				0.9998763799667358
			],
			"scale":[
				1,
				1.0000001192092896,
				1
			],
			"translation":[
				-1.0419171303510666e-08,
				0.14718028903007507,
				-8.731149137020111e-10
			]
		},
		{
			"children":[
				9
			],
			"name":"Bone.002",
			"rotation":[
				0.989953339099884,
				0.0023925548885017633,
				-0.14136135578155518,
				0.0019111430738121271
			],
			"scale":[
				0.9999998807907104,
				1,
				1
			],
			"translation":[
				-0.21222184598445892,
				0.3048592805862427,
				0.0017621628940105438
			]
		},
		{
			"mesh":0,
			"name":"leg_R",
			"skin":0
		},
		{
			"children":[
				11,
				3,
				5,
				6,
				8,
				10
			],
			"name":"Armature",
			"translation":[
				0.12715966999530792,
				0.03548065945506096,
				0.0070596178993582726
			]
		}
	],
	"animations":[
		{
			"channels":[
				{
					"sampler":0,
					"target":{
						"node":3,
						"path":"translation"
					}
				},
				{
					"sampler":1,
					"target":{
						"node":3,
						"path":"rotation"
					}
				},
				{
					"sampler":2,
					"target":{
						"node":3,
						"path":"scale"
					}
				},
				{
					"sampler":3,
					"target":{
						"node":2,
						"path":"translation"
					}
				},
				{
					"sampler":4,
					"target":{
						"node":2,
						"path":"rotation"
					}
				},
				{
					"sampler":5,
					"target":{
						"node":2,
						"path":"scale"
					}
				},
				{
					"sampler":6,
					"target":{
						"node":5,
						"path":"translation"
					}
				},
				{
					"sampler":7,
					"target":{
						"node":5,
						"path":"rotation"
					}
				},
				{
					"sampler":8,
					"target":{
						"node":5,
						"path":"scale"
					}
				},
				{
					"sampler":9,
					"target":{
						"node":4,
						"path":"translation"
					}
				},
				{
					"sampler":10,
					"target":{
						"node":4,
						"path":"rotation"
					}
				},
				{
					"sampler":11,
					"target":{
						"node":4,
						"path":"scale"
					}
				},
				{
					"sampler":12,
					"target":{
						"node":6,
						"path":"translation"
					}
				},
				{
					"sampler":13,
					"target":{
						"node":6,
						"path":"rotation"
					}
				},
				{
					"sampler":14,
					"target":{
						"node":6,
						"path":"scale"
					}
				},
				{
					"sampler":15,
					"target":{
						"node":8,
						"path":"translation"
					}
				},
				{
					"sampler":16,
					"target":{
						"node":8,
						"path":"rotation"
					}
				},
				{
					"sampler":17,
					"target":{
						"node":8,
						"path":"scale"
					}
				},
				{
					"sampler":18,
					"target":{
						"node":7,
						"path":"translation"
					}
				},
				{
					"sampler":19,
					"target":{
						"node":7,
						"path":"rotation"
					}
				},
				{
					"sampler":20,
					"target":{
						"node":7,
						"path":"scale"
					}
				},
				{
					"sampler":21,
					"target":{
						"node":10,
						"path":"translation"
					}
				},
				{
					"sampler":22,
					"target":{
						"node":10,
						"path":"rotation"
					}
				},
				{
					"sampler":23,
					"target":{
						"node":10,
						"path":"scale"
					}
				},
				{
					"sampler":24,
					"target":{
						"node":9,
						"path":"translation"
					}
				},
				{
					"sampler":25,
					"target":{
						"node":9,
						"path":"rotation"
					}
				},
				{
					"sampler":26,
					"target":{
						"node":9,
						"path":"scale"
					}
				}
			],
			"name":"ArmatureAction.002",
			"samplers":[
				{
					"input":13,
					"interpolation":"STEP",
					"output":14
				},
				{
					"input":15,
					"interpolation":"LINEAR",
					"output":16
				},
				{
					"input":13,
					"interpolation":"STEP",
					"output":17
				},
				{
					"input":13,
					"interpolation":"STEP",
					"output":18
				},
				{
					"input":13,
					"interpolation":"STEP",
					"output":19
				},
				{
					"input":13,
					"interpolation":"STEP",
					"output":20
				},
				{
					"input":13,
					"interpolation":"STEP",
					"output":21
				},
				{
					"input":15,
					"interpolation":"LINEAR",
					"output":22
				},
				{
					"input":13,
					"interpolation":"STEP",
					"output":23
				},
				{
					"input":13,
					"interpolation":"STEP",
					"output":24
				},
				{
					"input":13,
					"interpolation":"STEP",
					"output":25
				},
				{
					"input":13,
					"interpolation":"STEP",
					"output":26
				},
				{
					"input":13,
					"interpolation":"STEP",
					"output":27
				},
				{
					"input":15,
					"interpolation":"LINEAR",
					"output":28
				},
				{
					"input":13,
					"interpolation":"STEP",
					"output":29
				},
				{
					"input":13,
					"interpolation":"STEP",
					"output":30
				},
				{
					"input":15,
					"interpolation":"LINEAR",
					"output":31
				},
				{
					"input":13,
					"interpolation":"STEP",
					"output":32
				},
				{
					"input":13,
					"interpolation":"STEP",
					"output":33
				},
				{
					"input":15,
					"interpolation":"LINEAR",
					"output":34
				},
				{
					"input":13,
					"interpolation":"STEP",
					"output":35
				},
				{
					"input":13,
					"interpolation":"STEP",
					"output":36
				},
				{
					"input":15,
					"interpolation":"LINEAR",
					"output":37
				},
				{
					"input":13,
					"interpolation":"STEP",
					"output":38
				},
				{
					"input":13,
					"interpolation":"STEP",
					"output":39
				},
				{
					"input":15,
					"interpolation":"LINEAR",
					"output":40
				},
				{
					"input":13,
					"interpolation":"STEP",
					"output":41
				}
			]
		}
	],
	"materials":[
		{
			"alphaCutoff":0.05000000074505806,
			"alphaMode":"MASK",
			"doubleSided":true,
			"name":"Material_0",
			"pbrMetallicRoughness":{
				"baseColorTexture":{
					"index":0
				},
				"metallicFactor":0
			}
		},
		{
			"alphaCutoff":0.05000000074505806,
			"alphaMode":"MASK",
			"doubleSided":true,
			"name":"Material_1",
			"pbrMetallicRoughness":{
				"baseColorTexture":{
					"index":1
				},
				"metallicFactor":0
			}
		}
	],
	"meshes":[
		{
			"name":"Mesh_3",
			"primitives":[
				{
					"attributes":{
						"POSITION":0,
						"NORMAL":1,
						"TEXCOORD_0":2,
						"JOINTS_0":3,
						"WEIGHTS_0":4
					},
					"indices":5,
					"material":0
				},
				{
					"attributes":{
						"POSITION":6,
						"NORMAL":7,
						"TEXCOORD_0":8,
						"JOINTS_0":9,
						"WEIGHTS_0":10
					},
					"indices":11,
					"material":1
				}
			]
		}
	],
	"textures":[
		{
			"sampler":0,
			"source":0
		},
		{
			"sampler":0,
			"source":1
		}
	],
	"images":[
		{
			"mimeType":"image/png",
			"name":"Image_0",
			"uri":"Image_0.png"
		},
		{
			"mimeType":"image/png",
			"name":"Image_1",
			"uri":"Image_1.png"
		}
	],
	"skins":[
		{
			"inverseBindMatrices":12,
			"joints":[
				3,
				2,
				5,
				4,
				6,
				8,
				7,
				10,
				9
			],
			"name":"Armature"
		}
	],
	"accessors":[
		{
			"bufferView":0,
			"componentType":5126,
			"count":348,
			"max":[
				0.38007715344429016,
				0.6875,
				0.14374999701976776
			],
			"min":[
				-0.38007715344429016,
				-0.015625,
				-0.14374999701976776
			],
			"type":"VEC3"
		},
		{
			"bufferView":1,
			"componentType":5126,
			"count":348,
			"type":"VEC3"
		},
		{
			"bufferView":2,
			"componentType":5126,
			"count":348,
			"type":"VEC2"
		},
		{
			"bufferView":3,
			"componentType":5121,
			"count":348,
			"type":"VEC4"
		},
		{
			"bufferView":4,
			"componentType":5126,
			"count":348,
			"type":"VEC4"
		},
		{
			"bufferView":5,
			"componentType":5123,
			"count":852,
			"type":"SCALAR"
		},
		{
			"bufferView":6,
			"componentType":5126,
			"count":223,
			"max":[
				0.328125,
				1.234375,
				0.2718749940395355
			],
			"min":[
				-0.328125,
				0.640625,
				-0.2718749940395355
			],
			"type":"VEC3"
		},
		{
			"bufferView":7,
			"componentType":5126,
			"count":223,
			"type":"VEC3"
		},
		{
			"bufferView":8,
			"componentType":5126,
			"count":223,
			"type":"VEC2"
		},
		{
			"bufferView":9,
			"componentType":5121,
			"count":223,
			"type":"VEC4"
		},
		{
			"bufferView":10,
			"componentType":5126,
			"count":223,
			"type":"VEC4"
		},
		{
			"bufferView":11,
			"componentType":5123,
			"count":420,
			"type":"SCALAR"
		},
		{
			"bufferView":12,
			"componentType":5126,
			"count":9,
			"type":"MAT4"
		},
		{
			"bufferView":13,
			"componentType":5126,
			"count":2,
			"max":[
				1.6666666666666667
			],
			"min":[
				0
			],
			"type":"SCALAR"
		},
		{
			"bufferView":14,
			"componentType":5126,
			"count":2,
			"type":"VEC3"
		},
		{
			"bufferView":15,
			"componentType":5126,
			"count":41,
			"max":[
				1.6666666666666667
			],
			"min":[
				0
			],
			"type":"SCALAR"
		},
		{
			"bufferView":16,
			"componentType":5126,
			"count":41,
			"type":"VEC4"
		},
		{
			"bufferView":17,
			"componentType":5126,
			"count":2,
			"type":"VEC3"
		},
		{
			"bufferView":18,
			"componentType":5126,
			"count":2,
			"type":"VEC3"
		},
		{
			"bufferView":19,
			"componentType":5126,
			"count":2,
			"type":"VEC4"
		},
		{
			"bufferView":20,
			"componentType":5126,
			"count":2,
			"type":"VEC3"
		},
		{
			"bufferView":21,
			"componentType":5126,
			"count":2,
			"type":"VEC3"
		},
		{
			"bufferView":22,
			"componentType":5126,
			"count":41,
			"type":"VEC4"
		},
		{
			"bufferView":23,
			"componentType":5126,
			"count":2,
			"type":"VEC3"
		},
		{
			"bufferView":24,
			"componentType":5126,
			"count":2,
			"type":"VEC3"
		},
		{
			"bufferView":25,
			"componentType":5126,
			"count":2,
			"type":"VEC4"
		},
		{
			"bufferView":26,
			"componentType":5126,
			"count":2,
			"type":"VEC3"
		},
		{
			"bufferView":27,
			"componentType":5126,
			"count":2,
			"type":"VEC3"
		},
		{
			"bufferView":28,
			"componentType":5126,
			"count":41,
			"type":"VEC4"
		},
		{
			"bufferView":29,
			"componentType":5126,
			"count":2,
			"type":"VEC3"
		},
		{
			"bufferView":30,
			"componentType":5126,
			"count":2,
			"type":"VEC3"
		},
		{
			"bufferView":31,
			"componentType":5126,
			"count":41,
			"type":"VEC4"
		},
		{
			"bufferView":32,
			"componentType":5126,
			"count":2,
			"type":"VEC3"
		},
		{
			"bufferView":33,
			"componentType":5126,
			"count":2,
			"type":"VEC3"
		},
		{
			"bufferView":34,
			"componentType":5126,
			"count":41,
			"type":"VEC4"
		},
		{
			"bufferView":35,
			"componentType":5126,
			"count":2,
			"type":"VEC3"
		},
		{
			"bufferView":36,
			"componentType":5126,
			"count":2,
			"type":"VEC3"
		},
		{
			"bufferView":37,
			"componentType":5126,
			"count":41,
			"type":"VEC4"
		},
		{
			"bufferView":38,
			"componentType":5126,
			"count":2,
			"type":"VEC3"
		},
		{
			"bufferView":39,
			"componentType":5126,
			"count":2,
			"type":"VEC3"
		},
		{
			"bufferView":40,
			"componentType":5126,
			"count":41,
			"type":"VEC4"
		},
		{
			"bufferView":41,
			"componentType":5126,
			"count":2,
			"type":"VEC3"
		}
	],
	"bufferViews":[
		{
			"buffer":0,
			"byteLength":4176,
			"byteOffset":0,
			"target":34962
		},
		{
			"buffer":0,
			"byteLength":4176,
			"byteOffset":4176,
			"target":34962
		},
		{
			"buffer":0,
			"byteLength":2784,
			"byteOffset":8352,
			"target":34962
		},
		{
			"buffer":0,
			"byteLength":1392,
			"byteOffset":11136,
			"target":34962
		},
		{
			"buffer":0,
			"byteLength":5568,
			"byteOffset":12528,
			"target":34962
		},
		{
			"buffer":0,
			"byteLength":1704,
			"byteOffset":18096,
			"target":34963
		},
		{
			"buffer":0,
			"byteLength":2676,
			"byteOffset":19800,
			"target":34962
		},
		{
			"buffer":0,
			"byteLength":2676,
			"byteOffset":22476,
			"target":34962
		},
		{
			"buffer":0,
			"byteLength":1784,
			"byteOffset":25152,
			"target":34962
		},
		{
			"buffer":0,
			"byteLength":892,
			"byteOffset":26936,
			"target":34962
		},
		{
			"buffer":0,
			"byteLength":3568,
			"byteOffset":27828,
			"target":34962
		},
		{
			"buffer":0,
			"byteLength":840,
			"byteOffset":31396,
			"target":34963
		},
		{
			"buffer":0,
			"byteLength":576,
			"byteOffset":32236
		},
		{
			"buffer":0,
			"byteLength":8,
			"byteOffset":32812
		},
		{
			"buffer":0,
			"byteLength":24,
			"byteOffset":32820
		},
		{
			"buffer":0,
			"byteLength":164,
			"byteOffset":32844
		},
		{
			"buffer":0,
			"byteLength":656,
			"byteOffset":33008
		},
		{
			"buffer":0,
			"byteLength":24,
			"byteOffset":33664
		},
		{
			"buffer":0,
			"byteLength":24,
			"byteOffset":33688
		},
		{
			"buffer":0,
			"byteLength":32,
			"byteOffset":33712
		},
		{
			"buffer":0,
			"byteLength":24,
			"byteOffset":33744
		},
		{
			"buffer":0,
			"byteLength":24,
			"byteOffset":33768
		},
		{
			"buffer":0,
			"byteLength":656,
			"byteOffset":33792
		},
		{
			"buffer":0,
			"byteLength":24,
			"byteOffset":34448
		},
		{
			"buffer":0,
			"byteLength":24,
			"byteOffset":34472
		},
		{
			"buffer":0,
			"byteLength":32,
			"byteOffset":34496
		},
		{
			"buffer":0,
			"byteLength":24,
			"byteOffset":34528
		},
		{
			"buffer":0,
			"byteLength":24,
			"byteOffset":34552
		},
		{
			"buffer":0,
			"byteLength":656,
			"byteOffset":34576
		},
		{
			"buffer":0,
			"byteLength":24,
			"byteOffset":35232
		},
		{
			"buffer":0,
			"byteLength":24,
			"byteOffset":35256
		},
		{
			"buffer":0,
			"byteLength":656,
			"byteOffset":35280
		},
		{
			"buffer":0,
			"byteLength":24,
			"byteOffset":35936
		},
		{
			"buffer":0,
			"byteLength":24,
			"byteOffset":35960
		},
		{
			"buffer":0,
			"byteLength":656,
			"byteOffset":35984
		},
		{
			"buffer":0,
			"byteLength":24,
			"byteOffset":36640
		},
		{
			"buffer":0,
			"byteLength":24,
			"byteOffset":36664
		},
		{
			"buffer":0,
			"byteLength":656,
			"byteOffset":36688
		},
		{
			"buffer":0,
			"byteLength":24,
			"byteOffset":37344
		},
		{
			"buffer":0,
			"byteLength":24,
			"byteOffset":37368
		},
		{
			"buffer":0,
			"byteLength":656,
			"byteOffset":37392
		},
		{
			"buffer":0,
			"byteLength":24,
			"byteOffset":38048
		}
	],
	"samplers":[
		{
			"magFilter":9728,
			"minFilter":9984,
			"wrapS":33071,
			"wrapT":33071
		}
	],
	"buffers":[
		{
			"byteLength":38072,
			"uri":"jester_animated.bin"
		}
	]
}
